HIERARCHY
ROOT Hips
{
	OFFSET 0.000000 0.000000 0.000000
	CHANNELS 6 Xposition Yposition Zposition Zrotation Yrotation Xrotation 
	JOINT LHipJoint
	{
		OFFSET 0.000000 0.000000 0.000000
		CHANNELS 3 Zrotation Yrotation Xrotation
		JOINT LeftUpLeg
		{
			OFFSET 1.363060 -1.794630 0.839290
			CHANNELS 3 Zrotation Yrotation Xrotation
			JOINT LeftLeg
			{
				OFFSET 2.448110 -6.726130 0.000000
				CHANNELS 3 Zrotation Yrotation Xrotation
				JOINT LeftFoot
				{
					OFFSET 2.562200 -7.039590 0.000000
					CHANNELS 3 Zrotation Yrotation Xrotation
					JOINT LeftToeBase
					{
						OFFSET 0.157640 -0.433110 2.322550
						CHANNELS 3 Zrotation Yrotation Xrotation
						End Site
						{
							OFFSET 0.000000 0.000000 0.000000
						}
					}
				}
			}
		}
	}
	JOINT RHipJoint
	{
		OFFSET 0.000000 0.000000 0.000000
		CHANNELS 3 Zrotation Yrotation Xrotation
		JOINT RightUpLeg
		{
			OFFSET -1.305520 -1.794630 0.839290
			CHANNELS 3 Zrotation Yrotation Xrotation
			JOINT RightLeg
			{
				OFFSET -2.542530 -6.985550 0.000000
				CHANNELS 3 Zrotation Yrotation Xrotation
				JOINT RightFoot
				{
					OFFSET -2.568260 -7.056230 0.000000
					CHANNELS 3 Zrotation Yrotation Xrotation
					JOINT RightToeBase
					{
						OFFSET -0.164730 -0.452590 2.363150
						CHANNELS 3 Zrotation Yrotation Xrotation
						End Site
						{
							OFFSET 0.000000 0.000000 0.000000
						}
					}
				}
			}
		}
	}
	JOINT LowerBack
	{
		OFFSET 0.000000 0.000000 0.000000
		CHANNELS 3 Zrotation Yrotation Xrotation
		JOINT Spine
		{
			OFFSET 0.028270 2.035590 -0.193380
			CHANNELS 3 Zrotation Yrotation Xrotation
			JOINT Spine1
			{
				OFFSET 0.056720 2.048850 -0.042750
				CHANNELS 3 Zrotation Yrotation Xrotation
				JOINT Neck
				{
					OFFSET 0.000000 0.000000 0.000000
					CHANNELS 3 Zrotation Yrotation Xrotation
					JOINT Neck1
					{
						OFFSET -0.054170 1.746240 0.172020
						CHANNELS 3 Zrotation Yrotation Xrotation
						JOINT Head
						{
							OFFSET 0.104070 1.761360 -0.123970
							CHANNELS 3 Zrotation Yrotation Xrotation
							End Site
							{
								OFFSET 0.000000 0.000000 0.000000
							}
						}
					}
				}
				JOINT LeftShoulder
				{
					OFFSET 0.000000 0.000000 0.000000
					CHANNELS 3 Zrotation Yrotation Xrotation
					JOINT LeftArm
					{
						OFFSET 3.362410 1.200890 -0.311210
						CHANNELS 3 Zrotation Yrotation Xrotation
						JOINT LeftForeArm
						{
							OFFSET 4.983000 -0.000000 -0.000000
							CHANNELS 3 Zrotation Yrotation Xrotation
							JOINT LeftHand
							{
								OFFSET 3.483560 -0.000000 -0.000000
								CHANNELS 3 Zrotation Yrotation Xrotation
								JOINT LeftFingerBase
								{
									OFFSET 0.000000 0.000000 0.000000
									CHANNELS 3 Zrotation Yrotation Xrotation
									JOINT LeftHandIndex1
									{
										OFFSET 0.715260 -0.000000 -0.000000
										CHANNELS 3 Zrotation Yrotation Xrotation
										End Site
										{
											OFFSET 0.000000 0.000000 0.000000
										}
									}
								}
								JOINT LThumb
								{
									OFFSET 0.000000 0.000000 0.000000
									CHANNELS 3 Zrotation Yrotation Xrotation
									End Site
									{
										OFFSET 0.000000 0.000000 0.000000
									}
								}
							}
						}
					}
				}
				JOINT RightShoulder
				{
					OFFSET 0.000000 0.000000 0.000000
					CHANNELS 3 Zrotation Yrotation Xrotation
					JOINT RightArm
					{
						OFFSET -3.136600 1.374050 -0.404650
						CHANNELS 3 Zrotation Yrotation Xrotation
						JOINT RightForeArm
						{
							OFFSET -5.241900 -0.000000 -0.000000
							CHANNELS 3 Zrotation Yrotation Xrotation
							JOINT RightHand
							{
								OFFSET -3.444170 -0.000000 -0.000000
								CHANNELS 3 Zrotation Yrotation Xrotation
								JOINT RightFingerBase
								{
									OFFSET 0.000000 0.000000 0.000000
									CHANNELS 3 Zrotation Yrotation Xrotation
									JOINT RightHandIndex1
									{
										OFFSET -0.622530 -0.000000 -0.000000
										CHANNELS 3 Zrotation Yrotation Xrotation
										End Site
										{
											OFFSET 0.000000 0.000000 0.000000
										}
									}
								}
								JOINT RThumb
								{
									OFFSET 0.000000 0.000000 0.000000
									CHANNELS 3 Zrotation Yrotation Xrotation
									End Site
									{
										OFFSET 0.000000 0.000000 0.000000
									}
								}
							}
						}
					}
				}
			}
		}
	}
}
MOTION
Frames: 7
Frame Time: 0.008333
0.101532 17.918714 -3.512680 -1.407003 2.771245 2.608706 -2.589451 -0.093355 1.378967 -13.680179 0.861375 -0.252418 -0.571328 3.531385 9.964936 0.034258 1.280222 -3.484127 2.506800 -9.850200 -28.493000 1.733813 1.783413 -1.002736 18.992933 -0.946980 -0.762234 -0.890561 -6.155469 14.680606 0.637658 -7.328857 -9.355339 -0.479500 -4.440500 12.319300 -1.379923 -2.644449 4.030608 0.861861 -3.336263 -2.757756 3.493853 -2.095456 -3.270563 -11.274549 -10.510074 -7.422449 8.916376 -13.538043 14.242285 1.915900 -6.354000 7.382000 2.877846 5.714047 -0.493054 -95.032828 10.219817 2.884180 15.750402 -33.451265 -4.899011 -0.412341 0.699352 5.074949 5.749614 -11.511356 -1.316200 -7.125000 0.000000 0.000000 -14.549700 17.963700 9.670500 -1.915267 -5.786514 -0.681171 87.231570 1.462928 15.187558 -5.388386 20.635578 -0.736807 -1.184223 -2.105435 8.656260 -4.453228 -38.162034 2.102800 7.125000 0.000000 0.000000 36.116000 -62.280900 -16.294700 
0.102628 17.919610 -3.507100 -1.344553 2.635858 2.608328 -2.591277 -0.095935 1.379485 -13.754481 0.923426 -0.210987 -0.573103 3.519770 9.935402 0.029803 1.306826 -3.501505 2.590400 -10.000400 -28.978100 1.734187 1.780954 -1.002256 18.927344 -0.820485 -0.728686 -0.894551 -6.171323 14.724323 0.631952 -7.298533 -9.387465 -0.485400 -4.467500 12.395900 -1.474736 -2.612192 3.955877 0.878874 -3.299968 -2.767633 3.550826 -2.075858 -3.185436 -11.225299 -9.806607 -6.387958 9.428154 -12.749179 13.268158 2.191400 -5.994300 6.892300 2.889408 5.683743 -0.499811 -95.124147 10.186976 2.855239 15.768924 -33.471660 -4.906453 -0.410931 0.701283 5.295615 5.915181 -11.513383 -1.352000 -7.125000 0.000000 0.000000 -14.435700 17.954900 9.592500 -1.918740 -5.821575 -0.692769 87.368576 1.589105 14.225413 -5.248049 20.404689 -0.717540 -1.229226 -2.061796 8.799148 -5.338755 -37.745151 2.574500 7.125000 0.000000 0.000000 34.847700 -62.195200 -15.573800 
0.104123 17.919411 -3.503613 -1.296442 2.562691 2.610470 -2.592365 -0.096025 1.378882 -13.818411 0.954073 -0.200596 -0.573246 3.526108 9.951074 0.017562 1.378736 -3.493157 2.640900 -10.089700 -29.267600 1.734602 1.782569 -1.002554 18.865631 -0.783724 -0.743030 -0.900458 -6.192449 14.787548 0.622817 -7.242975 -9.398936 -0.490500 -4.490800 12.461700 -1.510170 -2.608572 3.896428 0.874858 -3.295495 -2.766579 3.546043 -2.077049 -3.144726 -11.265857 -9.748444 -6.500246 9.447275 -12.659663 13.526443 2.208400 -5.940600 6.981000 2.894298 5.696724 -0.500730 -95.135261 10.190735 2.978705 15.812618 -33.525506 -4.926000 -0.408787 0.704336 5.209674 6.055102 -11.451198 -1.374800 -7.125000 0.000000 0.000000 -14.345700 18.006100 9.511900 -1.936185 -5.818843 -0.678548 87.538427 1.703278 13.615438 -5.056015 20.089688 -0.683721 -1.307676 -1.985925 8.063711 -7.575106 -36.973034 3.753400 7.125000 0.000000 0.000000 31.962100 -62.182900 -14.122800 
0.106016 17.918116 -3.501819 -1.306530 2.522483 2.602922 -2.592718 -0.095769 1.378411 -13.818551 0.985670 -0.224917 -0.570359 3.546190 10.004974 0.009590 1.427727 -3.505124 2.666800 -10.135000 -29.415100 1.734756 1.783500 -1.002283 18.865506 -0.798017 -0.761674 -0.905715 -6.208023 14.835103 0.609683 -7.160197 -9.400780 -0.491700 -4.496100 12.476700 -1.467845 -2.613223 3.861911 0.875985 -3.297981 -2.767967 3.504132 -2.082270 -3.124187 -11.259843 -9.741583 -6.665870 9.322332 -12.628816 13.928963 2.167800 -5.917000 7.116200 2.895837 5.709583 -0.502396 -95.103821 10.185381 3.112899 15.825532 -33.544664 -4.930091 -0.407954 0.704234 5.149685 6.048734 -11.486123 -1.377000 -7.125000 0.000000 0.000000 -14.348900 17.971800 9.525300 -1.949409 -5.811681 -0.661830 87.766644 1.754225 12.699123 -4.977433 19.966758 -0.680068 -1.364892 -1.932094 8.147123 -8.871370 -36.536657 4.426000 7.125000 0.000000 0.000000 30.293100 -62.178300 -13.305200 
0.106714 17.916023 -3.499727 -1.380232 2.478818 2.570911 -2.592306 -0.091779 1.381903 -13.734204 1.023724 -0.230791 -0.569070 3.556082 10.030941 0.010999 1.434638 -3.614461 2.599800 -10.017100 -29.032100 1.734636 1.783581 -1.003165 18.951272 -0.790382 -0.724219 -0.906764 -6.211510 14.845243 0.606940 -7.142926 -9.421445 -0.496900 -4.519400 12.542700 -1.405339 -2.626536 3.841375 0.916756 -3.308174 -2.762620 3.488026 -2.091870 -3.110506 -11.416815 -9.924259 -6.919526 9.250025 -12.827191 14.381505 2.135300 -6.003400 7.310000 2.895787 5.725577 -0.503565 -95.097901 10.202324 3.259246 15.902550 -33.635582 -4.962700 -0.408887 0.710086 5.155239 5.999017 -11.281816 -1.344800 -7.125000 0.000000 0.000000 -14.394700 18.167000 9.493600 -1.955337 -5.792767 -0.640571 88.026944 1.727396 11.280990 -5.025154 20.055374 -0.716254 -1.392414 -1.896583 9.368628 -8.913915 -36.395930 4.442700 7.125000 0.000000 0.000000 30.094100 -62.078300 -13.137800 
0.106913 17.914130 -3.497037 -1.502498 2.430407 2.525084 -2.590782 -0.087689 1.386861 -13.585346 1.071630 -0.224086 -0.567833 3.561512 10.047088 0.015257 1.428381 -3.750765 2.482400 -9.805800 -28.350200 1.733172 1.779445 -1.003656 19.106406 -0.758928 -0.655446 -0.905298 -6.207535 14.830653 0.612261 -7.175328 -9.430269 -0.501900 -4.541800 12.606200 -1.316502 -2.638753 3.812302 0.971969 -3.317640 -2.753922 3.468304 -2.099843 -3.059326 -11.144056 -9.728259 -6.770323 8.920780 -12.585545 14.437837 2.029400 -5.900500 7.254200 2.886990 5.712410 -0.512097 -95.076109 10.249036 3.492999 16.057969 -33.816877 -5.034283 -0.410169 0.723613 5.033297 6.055059 -10.722237 -1.295700 -7.125000 0.000000 0.000000 -14.392200 18.695400 9.317400 -1.962731 -5.802225 -0.624738 88.506902 1.709927 8.620567 -5.164491 20.295360 -0.794929 -1.424958 -1.848845 12.034028 -8.358151 -36.360213 4.152500 7.125000 0.000000 0.000000 30.547200 -61.907600 -13.232600 
0.108407 17.913433 -3.494048 -1.516466 2.388039 2.512933 -2.591941 -0.090384 1.386569 -13.576913 1.124124 -0.265958 -0.562557 3.587110 10.119525 0.020068 1.408007 -3.812757 2.439900 -9.727800 -28.099700 1.732824 1.778574 -1.003219 19.116953 -0.784531 -0.645129 -0.905275 -6.208052 14.830066 0.610878 -7.163928 -9.408648 -0.489900 -4.487800 12.453300 -1.309380 -2.657691 3.762213 0.972546 -3.344702 -2.760301 3.464053 -2.112362 -3.023310 -10.869557 -9.514692 -6.610340 8.636321 -12.325344 14.476201 1.942200 -5.786400 7.194200 2.879270 5.695564 -0.515846 -95.046743 10.290563 3.579332 16.132035 -33.900872 -5.069830 -0.411024 0.729855 4.952625 6.094122 -10.422253 -1.270600 -7.125000 0.000000 0.000000 -14.385400 18.979300 9.218700 -1.963363 -5.807115 -0.625260 88.595330 1.608079 8.363466 -5.210193 20.373126 -0.809792 -1.421029 -1.856909 12.413432 -8.064238 -36.494159 4.007900 7.125000 0.000000 0.000000 30.950200 -61.937200 -13.447600 
